<?xml version="1.0" standalone="no"?>
<!DOCTYPE svg PUBLIC "-//W3C//DTD SVG 20010904//EN"
 "http://www.w3.org/TR/2001/REC-SVG-20010904/DTD/svg10.dtd">
<svg version="1.0" xmlns="http://www.w3.org/2000/svg"
 width="880.000000pt" height="1060.000000pt" viewBox="0 0 880.000000 1060.000000"
 preserveAspectRatio="xMidYMid meet">
<metadata>
Created by potrace 1.16, written by Peter Selinger 2001-2019
</metadata>
<g transform="translate(0.000000,1060.000000) scale(0.100000,-0.100000)"
fill="#000000" stroke="none">
<path d="M1325 10185 c-317 -60 -635 -310 -788 -621 -56 -112 -80 -184 -107
-315 -30 -145 -24 -369 13 -511 53 -200 146 -366 292 -516 179 -187 390 -300
645 -348 129 -25 363 -15 492 20 205 55 374 146 513 278 198 187 322 422 369
697 82 480 -193 990 -659 1224 -49 25 -118 55 -152 66 -115 39 -471 54 -618
26z m370 -206 c109 -15 220 -45 293 -79 231 -108 429 -334 514 -586 21 -63 23
-86 23 -279 0 -239 -2 -248 -88 -420 -111 -224 -250 -361 -462 -453 -145 -63
-214 -77 -390 -77 -190 0 -271 18 -422 92 -227 112 -408 322 -499 578 -37 105
-28 424 17 586 46 167 179 347 344 464 107 77 296 162 395 178 52 9 201 7 275
-4z"/>
<path d="M1231 9723 c-170 -73 -375 -337 -347 -446 3 -15 18 -34 32 -43 21
-15 31 -15 67 -4 33 9 70 39 167 136 69 68 145 136 170 152 62 40 81 64 87
111 5 36 2 44 -30 76 -28 28 -42 35 -73 34 -22 0 -54 -7 -73 -16z"/>
<path d="M6430 8514 c-14 -2 -65 -9 -115 -15 -253 -32 -574 -170 -822 -355
-138 -104 -308 -283 -410 -434 -50 -74 -102 -145 -116 -158 l-24 -23 -172 35
c-286 59 -391 70 -721 70 -323 1 -431 -8 -660 -54 -854 -171 -1640 -710 -2123
-1457 -281 -434 -436 -873 -493 -1398 -21 -196 -24 -641 -5 -790 44 -350 225
-900 391 -1186 73 -126 199 -309 298 -434 106 -133 360 -392 492 -502 467
-388 1028 -636 1630 -720 158 -21 633 -24 820 -5 323 34 604 102 876 210 218
87 365 166 594 317 878 581 1438 1593 1467 2650 6 223 -2 347 -38 594 l-21
143 28 28 c16 16 63 48 104 71 341 190 671 535 810 844 51 113 77 185 104 280
52 186 61 256 61 485 0 187 -3 230 -24 330 -77 373 -237 676 -496 936 -71 72
-166 158 -210 190 -224 165 -495 281 -765 329 -90 16 -404 29 -460 19z m451
-244 c313 -64 584 -208 808 -429 247 -244 379 -484 446 -811 25 -121 31 -422
11 -558 -67 -456 -302 -813 -726 -1104 -124 -85 -178 -113 -194 -99 -7 6 -28
50 -46 99 -92 244 -122 316 -168 408 -290 578 -734 1074 -1233 1376 -160 97
-194 126 -186 160 11 41 150 181 287 289 129 101 154 128 165 172 14 55 -58
123 -114 107 -60 -17 -156 -74 -238 -143 -101 -84 -238 -226 -285 -295 -38
-56 -47 -63 -73 -56 -55 14 -145 58 -145 70 0 20 131 210 203 295 246 288 635
489 1042 538 114 14 328 5 446 -19z m-2486 -870 c683 -77 1370 -415 1852 -913
362 -374 661 -919 792 -1446 53 -212 56 -245 56 -691 0 -445 -3 -484 -55 -690
-117 -467 -406 -1021 -704 -1350 -293 -323 -663 -591 -1057 -765 -287 -126
-558 -201 -889 -247 -141 -19 -553 -16 -710 6 -742 102 -1288 372 -1811 895
-161 162 -260 279 -371 441 -559 814 -680 1854 -326 2801 55 147 180 401 264
536 297 476 710 856 1201 1105 393 200 752 298 1213 332 87 6 446 -3 545 -14z"/>
<path d="M2880 6827 c-80 -34 -252 -130 -355 -201 -328 -224 -630 -535 -816
-841 -144 -237 -168 -320 -108 -376 39 -37 86 -39 126 -5 27 23 39 42 139 216
122 213 392 517 622 699 111 88 316 225 424 284 108 60 146 121 114 182 -16
29 -62 65 -83 65 -4 0 -33 -11 -63 -23z"/>
</g>
</svg>
