<?xml version="1.0" standalone="no"?>
<!DOCTYPE svg PUBLIC "-//W3C//DTD SVG 20010904//EN"
 "http://www.w3.org/TR/2001/REC-SVG-20010904/DTD/svg10.dtd">
<svg version="1.0" xmlns="http://www.w3.org/2000/svg"
 width="1221.000000pt" height="682.000000pt" viewBox="0 0 1221.000000 682.000000"
 preserveAspectRatio="xMidYMid meet">
<metadata>
Created by potrace 1.16, written by Peter Selinger 2001-2019
</metadata>
<g transform="translate(0.000000,682.000000) scale(0.100000,-0.100000)"
fill="#000000" stroke="none">
<path d="M7454 5386 c-34 -52 -46 -129 -51 -316 -2 -102 0 -268 5 -368 8 -158
12 -188 29 -210 26 -35 77 -42 92 -14 16 30 7 898 -9 917 -19 22 -48 18 -66
-9z"/>
<path d="M7722 4538 c-33 -29 -100 -90 -149 -135 l-90 -82 -41 42 c-22 23 -65
74 -95 112 -64 84 -97 104 -133 81 -25 -17 -34 -69 -14 -81 6 -4 22 -29 35
-56 29 -55 144 -183 186 -205 16 -8 47 -14 70 -14 53 0 108 41 238 175 89 92
91 95 91 143 0 44 -12 72 -31 72 -4 0 -35 -24 -67 -52z"/>
<path d="M9263 4164 c-44 -9 -208 -16 -555 -23 -478 -9 -494 -9 -514 10 -26
24 -39 24 -63 0 -18 -18 -46 -19 -657 -22 -554 -4 -642 -2 -661 11 -19 12 -27
13 -43 2 -17 -10 -95 -11 -398 -2 -960 28 -1018 28 -1597 -2 -178 -9 -551 -13
-1178 -13 -888 0 -919 -1 -932 -19 -34 -45 -37 -117 -24 -509 6 -213 9 -485 5
-615 -7 -267 -4 -284 62 -301 22 -6 689 -14 1642 -20 883 -7 1983 -17 2445
-24 1100 -16 1941 -15 2055 2 47 7 204 16 350 20 250 7 266 7 279 -11 38 -51
77 13 79 132 0 47 6 186 13 310 9 179 9 293 -2 560 -7 184 -13 372 -14 418 0
108 -5 112 -134 111 -53 -1 -124 -7 -158 -15z m191 -306 c3 -117 11 -310 18
-429 9 -165 9 -250 0 -360 -7 -79 -13 -178 -13 -220 l-2 -76 -266 -6 c-168 -4
-299 -12 -356 -21 -65 -12 -161 -16 -349 -16 l-258 0 6 33 c28 148 28 786 1
1022 -19 159 -26 235 -23 236 2 0 235 5 518 9 389 6 531 12 580 23 36 8 81 15
101 16 l37 1 6 -212z m-4058 -115 c10 -320 11 -666 4 -855 l-4 -118 -636 6
c-349 4 -636 8 -637 8 -1 1 3 20 10 42 9 29 11 180 9 605 l-2 566 257 7 c142
4 359 13 483 20 124 7 288 14 366 15 l141 1 9 -297z m1185 281 l156 -7 7 -351
c5 -272 3 -395 -9 -546 -8 -107 -15 -232 -15 -277 l0 -83 -407 0 c-225 0 -505
3 -624 7 l-217 6 9 26 c29 91 45 501 29 786 -6 121 -14 274 -17 339 l-6 119
469 -6 c258 -4 539 -10 625 -13z m-3186 -16 c99 -6 282 -12 407 -12 l228 -1 1
-570 c0 -313 0 -587 -1 -608 l-2 -39 -361 6 c-199 4 -485 3 -635 -1 l-272 -8
-1 445 c-1 245 -4 525 -8 623 l-6 177 235 0 c129 0 316 -6 415 -12z m4705 -75
c0 -49 7 -140 14 -203 11 -82 15 -229 15 -515 0 -220 -1 -419 -2 -443 l-1 -44
-66 6 c-36 3 -330 11 -655 17 -324 6 -592 13 -594 15 -2 2 2 45 8 96 7 51 17
143 24 203 13 122 16 645 4 827 l-7 118 477 3 c263 1 547 3 631 5 l152 2 0
-87z"/>
<path d="M2745 2580 c-21 -34 61 -171 145 -243 67 -57 131 -76 314 -93 128
-12 180 -12 256 -3 52 6 97 12 100 14 3 2 53 8 110 15 58 6 148 18 200 27 77
13 179 16 535 17 l440 1 84 -33 c46 -18 96 -41 110 -51 14 -10 58 -35 98 -55
40 -21 89 -57 112 -82 22 -24 49 -44 60 -44 22 0 44 28 56 70 30 104 280 187
595 197 143 5 162 3 250 -20 130 -35 278 -54 525 -67 116 -6 257 -18 315 -26
58 -8 124 -14 146 -14 23 0 70 -9 105 -20 49 -16 95 -21 199 -23 133 -2 137
-1 220 32 120 48 198 89 242 125 44 35 132 149 142 184 14 43 -20 23 -62 -37
-72 -102 -136 -152 -274 -212 l-123 -54 -140 1 c-117 0 -150 4 -202 22 -34 12
-83 22 -109 22 -26 0 -88 6 -138 14 -50 8 -190 20 -311 26 -248 13 -387 30
-525 66 -134 34 -323 34 -493 -1 -273 -56 -383 -114 -401 -209 -4 -20 -10 -36
-15 -36 -4 0 -29 20 -54 45 -26 25 -79 61 -119 81 -39 20 -83 44 -97 55 -14
10 -68 32 -118 49 -80 26 -113 31 -238 37 -178 8 -711 -12 -855 -32 -58 -8
-170 -23 -250 -35 -171 -24 -260 -25 -433 -6 -86 10 -143 22 -172 36 -80 39
-204 191 -205 253 0 18 -15 23 -25 7z"/>
</g>
</svg>
