<?xml version="1.0" standalone="no"?>
<!DOCTYPE svg PUBLIC "-//W3C//DTD SVG 20010904//EN"
 "http://www.w3.org/TR/2001/REC-SVG-20010904/DTD/svg10.dtd">
<svg version="1.0" xmlns="http://www.w3.org/2000/svg"
 width="1000.000000pt" height="703.000000pt" viewBox="0 0 1000.000000 703.000000"
 preserveAspectRatio="xMidYMid meet">
<metadata>
Created by potrace 1.16, written by Peter Selinger 2001-2019
</metadata>
<g transform="translate(0.000000,703.000000) scale(0.100000,-0.100000)"
fill="#000000" stroke="none">
<path d="M1200 5379 c-236 -19 -443 -66 -495 -112 -33 -29 -49 -132 -40 -264
4 -54 6 -118 6 -143 0 -35 5 -51 26 -72 25 -26 25 -29 15 -81 -7 -34 -28 -81
-55 -123 -57 -88 -98 -170 -131 -262 -149 -415 -181 -1093 -95 -2022 32 -351
49 -471 69 -500 40 -56 196 -115 393 -150 223 -39 315 -45 647 -45 276 1 349
4 485 23 276 37 470 97 534 166 21 23 26 45 46 228 114 1014 98 1781 -47 2238
-39 124 -87 227 -149 322 -40 60 -51 87 -56 131 -5 46 -2 59 17 85 20 27 22
35 12 57 -8 16 -9 33 -3 43 15 30 22 184 12 267 -13 98 -28 114 -139 149 -205
64 -685 94 -1052 65z m565 -29 c311 -19 548 -68 580 -120 24 -39 -125 -93
-330 -119 -97 -13 -348 -31 -353 -26 -3 2 6 20 18 40 34 55 13 56 -34 3 -54
-61 -77 -63 -31 -2 34 44 44 74 26 74 -5 0 -31 -27 -57 -60 -41 -53 -64 -72
-64 -55 0 3 18 28 40 56 40 51 57 106 25 79 -9 -7 -37 -41 -62 -76 -26 -35
-53 -64 -60 -64 -19 0 -16 11 11 39 27 29 36 54 22 61 -6 3 -28 -18 -50 -47
-29 -36 -48 -52 -65 -52 -25 -1 -25 -1 7 32 18 18 32 42 32 52 0 15 -10 9 -48
-28 -26 -26 -52 -47 -57 -47 -6 0 3 10 18 23 21 16 28 30 25 47 -3 24 -4 24
-54 -22 -28 -27 -57 -48 -65 -48 -8 0 1 12 19 26 17 14 32 32 32 40 0 21 -7
18 -54 -21 -24 -19 -49 -35 -56 -35 -7 0 6 14 29 30 23 17 39 35 36 40 -11 17
-26 11 -76 -31 -27 -22 -54 -39 -60 -37 -6 2 7 16 30 31 22 15 41 31 41 37 0
22 -21 17 -70 -20 -58 -44 -95 -56 -42 -14 42 33 45 62 5 39 -16 -8 -40 -25
-55 -37 -15 -12 -30 -19 -33 -16 -3 3 10 15 30 26 19 12 35 26 35 32 0 19 -32
10 -75 -21 -24 -17 -49 -29 -57 -27 -7 3 11 17 40 32 28 14 52 33 52 41 0 23
-12 19 -76 -25 -33 -22 -65 -40 -71 -40 -20 0 -15 18 6 25 10 3 27 15 37 27
19 21 19 21 -3 16 -21 -6 -23 -2 -23 28 0 19 -5 34 -11 34 -5 0 -37 -18 -70
-41 -33 -22 -63 -38 -66 -36 -2 3 7 13 21 21 14 9 37 23 51 31 14 9 25 22 25
29 0 35 359 80 670 84 52 1 172 -3 265 -8z m575 -326 c-22 -44 -37 -61 -46
-51 -3 3 -1 14 5 26 6 11 7 22 3 25 -5 3 -16 -10 -25 -29 -9 -19 -22 -35 -28
-35 -6 0 -1 15 11 34 25 41 9 60 -17 20 l-17 -27 -6 24 c-6 22 -8 21 -34 -23
-15 -27 -34 -48 -42 -48 -20 0 -17 11 16 50 33 38 43 83 14 59 -9 -7 -30 -37
-46 -66 -16 -29 -37 -53 -45 -53 -12 0 -9 8 11 34 30 41 31 43 10 63 -17 18
-20 15 -71 -64 -28 -44 -53 -60 -33 -22 21 38 3 44 -21 7 -25 -40 -48 -53 -29
-17 6 11 10 27 8 36 -2 11 -12 3 -32 -25 -16 -23 -35 -42 -44 -42 -16 0 -16 0
35 63 23 28 31 67 15 67 -7 0 -69 -80 -92 -119 -14 -24 -279 -36 -505 -22
-270 16 -545 60 -545 86 0 7 19 20 42 27 31 11 44 21 46 36 4 25 -2 26 -47 11
-27 -10 -35 -9 -49 5 -10 9 -12 16 -5 16 7 0 15 -4 18 -10 10 -17 25 -11 25 9
0 11 -10 27 -22 35 -35 25 -17 26 62 6 167 -43 315 -55 675 -55 269 1 366 4
465 18 144 20 268 50 319 77 l36 18 3 -50 c2 -35 -3 -62 -18 -94z m-1486 -109
c200 -40 340 -55 571 -62 300 -8 555 15 838 77 50 11 93 17 96 14 11 -11 -17
-39 -51 -51 -52 -17 -343 -60 -491 -72 -163 -14 -457 -14 -612 0 -240 20 -480
64 -496 91 -15 22 -10 41 7 34 9 -4 71 -17 138 -31z m51 -89 c213 -37 358 -49
610 -49 252 1 465 19 682 59 161 29 155 29 151 2 -4 -30 -42 -42 -193 -62
-230 -29 -433 -39 -725 -33 -355 7 -654 37 -706 72 -32 20 -21 49 15 41 14 -3
89 -17 166 -30z m62 -91 c357 -42 817 -40 1171 5 84 11 157 20 162 20 28 0 3
-53 -62 -133 -44 -55 -68 -91 -62 -97 6 -6 33 18 72 65 35 41 66 75 71 75 5 0
12 -12 15 -26 6 -22 -4 -37 -69 -108 -49 -55 -75 -91 -75 -107 0 -20 14 -9 83
65 55 59 87 87 95 82 9 -5 -3 -26 -43 -72 -31 -35 -55 -69 -53 -75 2 -6 28 16
57 50 50 58 71 73 71 52 0 -6 -27 -40 -59 -77 -77 -88 -68 -110 11 -28 58 60
78 75 78 56 0 -5 -25 -37 -55 -72 -50 -58 -67 -90 -47 -90 4 0 32 28 63 62 63
70 88 66 33 -5 -20 -25 -34 -51 -32 -58 2 -7 19 7 37 30 18 22 37 41 42 41 22
0 5 -36 -51 -103 -56 -69 -71 -97 -52 -97 4 0 34 32 66 71 49 59 61 68 68 55
7 -13 0 -28 -29 -64 -73 -88 -115 -152 -111 -169 2 -11 16 2 47 43 51 68 101
124 113 124 23 0 0 -44 -62 -120 -39 -46 -70 -93 -70 -105 0 -17 5 -14 28 15
42 54 114 135 124 138 24 10 -1 -29 -72 -112 -45 -53 -80 -103 -80 -115 0 -12
3 -21 8 -20 4 0 41 38 82 85 41 46 78 84 83 84 21 0 1 -38 -44 -88 -65 -71
-83 -98 -76 -117 4 -10 24 4 68 50 34 36 66 65 71 65 17 0 7 -28 -22 -55 -18
-17 -30 -39 -30 -54 l0 -25 28 27 c53 51 57 29 7 -34 -19 -24 -35 -53 -35 -64
0 -16 8 -10 38 24 l39 45 6 -40 c7 -39 6 -40 -83 -129 -79 -79 -105 -115 -84
-115 3 0 44 34 90 76 92 83 113 80 44 -7 -38 -48 -50 -79 -32 -79 5 0 24 19
42 42 19 23 35 37 37 31 2 -6 -39 -55 -92 -108 -58 -60 -95 -106 -95 -119 0
-16 17 -4 78 55 42 41 87 83 100 93 22 19 22 19 22 -2 0 -13 -32 -55 -80 -106
-56 -60 -78 -90 -73 -101 4 -13 22 -1 79 56 l74 73 0 -33 c0 -28 -15 -49 -105
-144 -77 -81 -105 -118 -105 -136 0 -22 13 -13 103 77 56 56 106 102 110 102
20 0 2 -38 -43 -88 -47 -52 -62 -82 -41 -82 5 0 25 18 45 40 20 22 38 40 41
40 3 0 5 -10 5 -23 0 -15 -16 -36 -45 -60 -25 -21 -45 -45 -45 -52 0 -21 11
-18 50 16 62 53 45 9 -24 -60 -36 -36 -66 -75 -66 -86 0 -15 14 -6 58 38 32
31 61 57 65 57 4 0 7 -15 7 -34 0 -31 -10 -43 -107 -127 -100 -85 -130 -119
-104 -119 5 0 47 31 93 68 106 87 108 88 108 63 0 -12 -28 -42 -75 -82 -41
-34 -75 -68 -75 -75 0 -21 5 -18 77 41 37 30 69 52 72 50 3 -3 -32 -43 -77
-88 -104 -105 -113 -146 -12 -55 39 35 76 65 83 67 7 2 -13 -19 -43 -45 -119
-104 -200 -188 -200 -206 0 -14 25 4 93 66 105 97 135 121 145 112 3 -4 -31
-44 -76 -89 -47 -47 -82 -91 -82 -102 0 -14 21 1 80 60 44 44 80 73 80 65 0
-8 -32 -47 -71 -86 -46 -46 -70 -78 -67 -90 2 -14 15 -6 66 40 34 32 62 52 62
45 0 -8 -43 -52 -95 -99 -52 -47 -95 -93 -95 -102 0 -10 3 -18 6 -18 3 0 41
33 85 72 97 88 104 92 95 47 -4 -24 -29 -56 -81 -109 -42 -42 -75 -84 -75 -95
0 -15 17 -3 68 48 37 37 71 67 75 67 22 0 -1 -34 -68 -100 -43 -43 -75 -83
-75 -94 0 -17 7 -14 43 20 23 22 54 50 70 63 l27 24 0 -27 c0 -21 -13 -40 -51
-75 -59 -55 -65 -94 -7 -42 41 35 48 38 48 15 0 -9 -25 -43 -55 -75 -35 -39
-52 -65 -48 -75 4 -12 15 -6 50 28 l45 43 -5 -40 c-3 -22 -9 -62 -12 -88 -6
-45 -8 -48 -23 -34 -34 31 -148 77 -251 101 -242 57 -525 81 -861 73 -322 -8
-585 -42 -744 -97 -121 -41 -116 -25 40 129 119 118 185 204 169 219 -4 4 -24
-13 -44 -38 -63 -78 -184 -200 -198 -200 -19 0 -16 14 7 35 23 21 26 41 8 48
-10 3 -10 7 0 20 8 9 12 23 10 32 -3 15 -7 14 -31 -5 -24 -19 -32 -21 -54 -11
l-25 12 80 83 c79 82 120 141 107 154 -4 4 -32 -21 -63 -56 l-57 -64 -23 24
c-12 14 -22 32 -22 42 0 15 -3 16 -15 6 -17 -14 -31 -8 -20 9 3 6 20 11 37 11
26 0 30 3 25 22 -4 15 4 33 29 61 41 49 47 78 8 48 -14 -11 -34 -31 -45 -45
-18 -23 -49 -36 -49 -20 0 4 14 22 31 41 30 35 33 57 5 34 -22 -18 -37 -4 -30
26 5 18 3 24 -5 19 -6 -4 -11 -3 -11 3 0 22 22 21 57 -4 43 -29 53 -31 53 -10
0 8 -27 36 -61 62 l-61 48 106 101 c58 55 106 108 106 117 0 26 -13 21 -64
-24 -63 -55 -72 -41 -13 19 41 42 59 72 41 72 -13 0 -51 -25 -81 -52 l-31 -30
-31 23 c-17 12 -31 24 -31 26 0 1 20 21 45 44 41 38 58 69 37 69 -4 0 -27 -14
-49 -30 -48 -36 -65 -26 -24 14 18 18 34 24 45 20 15 -6 17 -2 10 31 l-7 38
24 -16 c13 -10 27 -17 31 -17 17 0 7 28 -18 51 -15 14 -23 31 -21 41 4 15 1
17 -21 11 -22 -5 -24 -4 -18 13 24 57 18 66 -22 38 -21 -14 -25 -14 -47 0
l-25 16 62 53 c34 28 63 58 66 65 7 23 -27 12 -63 -19 -29 -26 -38 -29 -50
-19 -21 17 -20 21 26 59 30 25 43 31 52 22 6 -6 17 -11 24 -11 11 0 11 5 3 21
-10 18 -5 27 36 71 49 52 47 78 -2 39 -28 -22 -47 -18 -74 13 -9 12 -10 19 -1
30 6 8 10 18 9 24 -3 10 110 105 147 124 26 14 65 49 65 60 0 15 -32 8 -63
-14 -18 -12 -64 -48 -104 -80 -65 -53 -74 -57 -93 -46 -25 16 -21 32 8 36 12
2 22 9 22 16 0 6 18 30 40 51 22 21 40 43 40 47 0 12 -40 -10 -71 -39 -16 -15
-32 -21 -42 -17 -24 9 -21 23 7 30 13 3 27 15 29 26 4 14 11 19 21 15 12 -5
16 1 16 23 0 20 -4 28 -13 24 -17 -6 -52 31 -38 40 6 4 34 -10 63 -30 46 -31
53 -34 57 -18 2 12 -10 30 -34 49 l-37 31 46 38 c25 20 46 42 46 47 0 19 -28
8 -68 -27 -24 -20 -49 -34 -59 -31 -16 3 -16 5 2 12 41 18 111 97 73 82 -7 -2
-20 11 -29 29 l-16 34 46 30 c54 34 97 77 88 86 -3 4 -22 -4 -41 -16 -32 -19
-37 -20 -42 -6 -3 9 -1 23 6 31 10 12 9 20 -4 40 -14 21 -14 25 -2 25 8 0 18
-4 21 -10 13 -21 27 -9 20 18 l-7 27 24 -22 c14 -13 30 -23 36 -23 17 0 15 25
-4 41 -14 12 -13 16 12 36 22 17 26 25 16 31 -9 6 3 19 40 42 46 29 50 35 31
38 -13 2 -23 10 -23 18 0 18 15 18 44 -2 28 -17 46 -3 26 21 -7 8 -10 22 -6
30 4 11 -1 15 -19 15 -30 0 -33 16 -5 25 11 3 20 13 20 22 0 10 -6 13 -16 9
-37 -14 -64 -18 -64 -8 0 6 8 13 19 17 10 3 26 14 36 25 15 17 16 20 3 20 -9
0 -32 -7 -52 -15 l-36 -15 0 26 c0 26 1 27 48 20 26 -4 102 -13 169 -21z m998
-2681 c351 -38 580 -116 580 -199 0 -83 -223 -159 -590 -201 -168 -19 -717
-25 -747 -8 -15 8 -11 14 30 44 43 33 67 70 43 70 -5 0 -40 -25 -78 -55 -60
-48 -93 -66 -93 -50 0 3 16 19 35 36 31 28 48 69 27 69 -4 0 -34 -22 -67 -50
-54 -46 -85 -61 -85 -42 0 4 23 22 50 41 30 20 50 41 50 52 0 16 -4 17 -26 9
-14 -6 -51 -31 -80 -57 -30 -25 -58 -43 -61 -39 -4 4 16 27 45 52 29 25 52 50
52 55 0 22 -30 5 -80 -46 -50 -51 -80 -68 -80 -46 0 5 26 28 58 52 64 48 75
60 63 72 -13 13 -49 -10 -111 -68 -39 -37 -60 -51 -72 -46 -14 5 -7 15 37 49
30 23 55 46 55 52 0 22 -29 8 -83 -41 -32 -28 -61 -49 -64 -45 -3 3 7 16 23
28 47 37 65 58 59 69 -7 11 -47 -15 -89 -60 -30 -31 -46 -39 -46 -21 0 5 24
28 54 50 56 42 76 70 51 70 -8 0 -41 -25 -73 -55 -66 -61 -95 -75 -42 -20 42
43 23 46 -25 4 -20 -18 -38 -29 -41 -27 -2 3 34 40 81 83 47 42 85 81 85 86 0
24 -33 2 -114 -74 -48 -45 -89 -80 -92 -77 -3 2 14 22 38 42 33 29 40 40 30
46 -10 7 -4 15 25 33 52 32 113 88 113 104 0 26 240 61 535 79 115 7 481 -5
620 -20z"/>
<path d="M7915 5333 c-440 -22 -748 -83 -822 -164 -28 -31 -47 -165 -39 -280
3 -46 6 -104 6 -129 -1 -25 5 -55 11 -67 9 -16 9 -32 2 -55 -8 -27 -6 -40 10
-70 29 -54 13 -97 -76 -201 -166 -194 -254 -411 -309 -767 -20 -131 -22 -181
-22 -510 0 -432 18 -651 95 -1141 27 -169 39 -188 144 -224 144 -49 462 -95
810 -116 214 -13 841 -6 1025 11 431 40 718 112 749 187 21 53 77 445 106 753
26 258 31 690 11 894 -28 287 -84 514 -173 690 -45 90 -77 136 -162 235 -77
90 -96 141 -67 183 18 25 21 65 7 87 -6 10 -5 24 4 41 15 29 17 64 18 275 0
182 -8 201 -95 244 -185 91 -754 148 -1233 124z m793 -67 c246 -32 405 -73
460 -121 26 -22 26 -24 9 -43 -75 -83 -420 -141 -890 -149 l-289 -6 51 48 c44
41 67 85 44 85 -4 0 -37 -30 -74 -66 -59 -58 -70 -65 -100 -62 l-34 3 78 64
c72 60 94 91 64 91 -7 0 -50 -35 -96 -77 -47 -43 -88 -78 -93 -77 -4 1 -20 2
-35 3 -24 1 -20 7 53 76 45 42 72 74 63 75 -8 0 -51 -34 -95 -75 -65 -61 -85
-75 -111 -75 -18 0 -33 4 -33 8 0 4 23 25 50 45 28 21 50 44 50 52 0 8 -2 15
-5 15 -3 0 -34 -25 -70 -56 -51 -42 -72 -55 -93 -52 -26 3 -24 5 35 51 55 44
80 73 70 84 -2 2 -40 -26 -83 -62 -43 -35 -87 -65 -97 -65 -26 0 -15 13 64 76
38 30 69 59 69 64 0 23 -32 5 -108 -61 -77 -67 -83 -70 -119 -63 l-37 7 44 39
c25 21 75 58 113 81 42 26 67 48 67 59 0 10 -2 18 -5 18 -19 0 -82 -43 -164
-111 -51 -44 -100 -79 -108 -79 -23 0 -6 18 73 76 41 30 74 61 74 69 0 29 -28
13 -126 -72 -34 -29 -69 -53 -79 -53 -10 0 14 23 56 53 65 46 98 87 72 87 -5
0 -47 -29 -93 -65 -47 -36 -88 -65 -92 -65 -23 0 -1 24 60 64 90 62 102 71
102 85 0 20 -17 12 -114 -59 -91 -66 -99 -69 -122 -57 -24 13 -23 14 80 75 57
35 106 67 108 72 4 11 151 36 293 50 61 5 126 12 145 14 19 2 206 3 415 1 273
-2 415 -8 503 -19z m496 -253 c8 -53 6 -144 -4 -168 l-9 -20 -1 20 c-1 14 -3
16 -7 5 -8 -23 -34 -40 -60 -40 -28 0 -29 9 -6 49 25 42 6 52 -26 13 l-27 -32
-25 26 c-13 14 -23 34 -21 45 5 31 -15 22 -43 -18 -24 -36 -26 -37 -31 -16 -4
13 -10 21 -14 18 -5 -3 -11 -1 -15 5 -14 23 -27 9 -22 -23 7 -44 -5 -66 -27
-48 -14 12 -14 16 0 43 21 41 8 49 -22 15 -20 -23 -25 -25 -30 -13 -9 24 -30
19 -50 -11 l-18 -28 -6 25 c-6 24 -6 23 -40 -18 l-34 -42 -29 27 -30 28 7 -42
c7 -50 -8 -58 -19 -10 -4 17 -9 26 -12 20 -6 -17 -21 -16 -39 2 -22 22 -36 18
-33 -7 2 -13 -1 -33 -5 -46 -6 -19 -10 -21 -22 -11 -19 16 -18 24 11 67 25 37
33 72 15 72 -5 0 -21 -20 -36 -45 -22 -39 -28 -44 -42 -33 -13 11 -15 9 -10
-17 4 -19 -1 -43 -13 -66 l-18 -37 -126 -7 c-320 -18 -1016 58 -1084 119 -9 8
-33 22 -54 31 -21 8 -37 22 -37 31 0 11 5 14 16 10 9 -3 27 -9 41 -12 40 -10
24 17 -22 40 -22 11 -34 21 -28 23 7 3 21 0 32 -6 30 -16 64 -14 58 3 -4 11 8
8 40 -9 25 -14 49 -22 54 -20 14 9 -2 35 -32 51 -16 8 -29 17 -29 20 0 3 5 2
11 -2 6 -3 14 -2 18 4 5 8 35 6 101 -8 155 -32 314 -49 563 -62 475 -24 1038
29 1220 116 29 13 55 25 58 25 4 1 9 -16 13 -36z m-4 -277 c-2 -45 -73 -64
-395 -105 -265 -33 -487 -44 -785 -38 -295 6 -485 23 -717 62 -81 14 -150 25
-154 25 -15 0 -49 43 -49 61 0 30 17 31 113 10 142 -32 301 -58 464 -78 207
-24 707 -24 918 1 170 19 394 57 505 84 67 17 76 17 88 3 6 -8 12 -20 12 -25z
m-1919 -120 c266 -45 411 -58 746 -63 413 -7 657 10 1005 68 70 12 134 19 142
16 29 -11 19 -47 -17 -62 -36 -15 -242 -45 -452 -67 -200 -20 -943 -17 -1150
5 -349 37 -445 58 -445 95 0 19 8 32 20 32 3 0 71 -11 151 -24z m140 -130
c349 -40 880 -52 1189 -27 147 12 459 48 495 57 11 3 -31 -43 -92 -101 -96
-91 -131 -135 -107 -135 3 0 60 50 127 110 67 61 124 110 128 110 4 0 10 -12
14 -27 5 -23 -4 -36 -78 -112 -100 -103 -128 -138 -121 -156 3 -8 37 20 92 77
92 96 138 133 145 121 3 -5 -44 -60 -103 -123 -97 -102 -125 -140 -103 -140 3
0 58 50 120 111 l114 112 30 -29 30 -29 -85 -80 c-110 -104 -167 -171 -159
-190 4 -11 22 2 65 50 33 36 93 92 132 124 l71 58 17 -21 c16 -22 14 -25 -88
-129 -95 -98 -122 -137 -94 -137 6 0 10 4 10 9 0 12 188 201 200 201 5 0 16
-12 24 -27 13 -27 12 -29 -55 -102 -38 -41 -69 -82 -69 -90 0 -16 52 33 113
108 18 22 32 30 38 24 6 -6 -17 -37 -69 -89 -78 -79 -119 -130 -110 -139 3 -3
49 39 103 92 88 88 91 90 24 18 -125 -136 -189 -212 -189 -225 0 -8 59 48 131
123 72 75 134 137 138 137 5 0 12 -10 18 -22 9 -20 -1 -36 -89 -136 -54 -62
-98 -120 -98 -130 0 -12 9 -8 33 18 17 20 65 71 106 115 l73 80 -63 -78 c-34
-43 -66 -80 -71 -83 -4 -3 -8 -13 -8 -22 0 -10 28 14 71 61 50 55 74 75 80 66
5 -8 -5 -27 -24 -50 -123 -142 -227 -268 -227 -273 0 -17 21 -1 59 47 23 28
79 89 124 135 79 80 82 82 90 58 7 -22 -6 -42 -112 -174 -67 -82 -121 -157
-121 -166 0 -10 26 15 59 57 33 40 68 80 78 88 10 8 3 -4 -14 -27 -18 -22 -28
-45 -24 -52 4 -7 26 14 58 56 28 37 62 77 76 90 l25 24 7 -52 c4 -29 3 -55 -1
-60 -5 -4 -54 -47 -109 -95 -55 -48 -104 -91 -109 -96 -5 -4 -6 -15 -2 -25 5
-14 15 -8 59 32 70 66 163 144 171 144 3 0 6 -8 6 -17 0 -10 -28 -43 -61 -73
-34 -31 -60 -61 -58 -68 3 -8 26 7 61 38 31 27 59 50 62 50 3 0 6 -9 6 -19 0
-11 -24 -41 -55 -68 -30 -26 -55 -54 -55 -60 0 -20 9 -16 60 27 42 35 49 38
55 23 4 -13 -2 -25 -22 -41 -109 -92 -233 -208 -233 -219 0 -24 20 -13 91 52
84 77 154 135 163 135 21 0 0 -50 -39 -91 -25 -26 -45 -56 -45 -66 0 -12 12
-5 45 27 43 42 45 43 45 19 0 -18 -17 -39 -60 -77 -33 -29 -60 -60 -60 -68 0
-23 11 -17 62 33 26 26 50 44 53 41 3 -2 -38 -48 -91 -100 -122 -120 -121
-150 1 -38 80 73 90 79 93 59 3 -17 -21 -47 -104 -130 -59 -60 -105 -112 -101
-115 4 -4 45 30 91 76 86 85 116 109 116 92 0 -5 -45 -53 -100 -107 -57 -57
-100 -107 -100 -118 0 -13 27 6 98 72 69 64 98 86 100 74 3 -9 -27 -47 -72
-92 -67 -67 -90 -101 -70 -101 3 0 35 27 72 60 36 33 67 58 70 56 2 -3 -24
-33 -58 -67 -66 -66 -200 -222 -200 -233 0 -20 27 4 96 84 42 49 95 103 116
120 l38 31 0 -48 c0 -47 -2 -49 -115 -168 -63 -66 -115 -126 -115 -132 0 -7 1
-13 3 -13 1 0 49 46 107 102 104 101 105 102 108 72 3 -26 -11 -44 -108 -144
-60 -62 -110 -117 -110 -122 0 -20 22 -2 113 91 82 82 97 94 97 74 0 -16 -20
-42 -65 -85 -36 -33 -63 -63 -60 -66 3 -3 31 19 61 49 l56 54 -5 -54 c-6 -46
-13 -60 -54 -105 -73 -77 -123 -141 -123 -157 0 -8 36 24 80 71 71 77 79 82
80 59 0 -20 -18 -45 -76 -100 -41 -41 -79 -75 -85 -77 -11 -4 -12 -42 -1 -42
4 0 37 27 74 60 36 33 68 60 70 60 3 0 3 -13 0 -29 -2 -16 -21 -45 -43 -67
-23 -22 -39 -48 -39 -61 0 -30 8 -29 43 5 25 23 29 24 24 7 -3 -11 -9 -41 -12
-66 l-7 -46 -47 17 c-186 71 -690 106 -1386 97 -423 -6 -606 -17 -865 -52
l-120 -17 -29 24 c-35 27 -40 43 -11 35 15 -4 20 0 21 16 0 15 35 53 101 112
113 101 131 124 126 157 -3 20 -14 13 -103 -72 -55 -52 -114 -108 -131 -123
l-31 -28 -24 21 c-23 21 -18 22 26 4 17 -7 21 21 5 31 -15 10 -8 17 95 95 96
73 124 105 108 121 -10 10 -31 -4 -156 -104 -47 -37 -89 -67 -92 -67 -4 0 -20
9 -36 21 l-30 21 36 36 c45 47 47 69 4 46 -30 -15 -32 -15 -54 6 l-23 21 45
47 c52 53 40 72 -13 21 l-34 -33 -21 21 c-20 20 -19 50 2 38 5 -4 9 0 9 7 0 7
34 39 75 71 65 50 93 87 67 87 -13 0 -56 -32 -103 -77 -41 -39 -49 -44 -68
-34 -20 11 -20 12 -1 31 11 11 27 20 35 20 8 0 15 6 15 14 0 8 19 27 43 42 53
34 100 88 95 110 -2 14 -8 12 -36 -11 -33 -27 -35 -28 -60 -13 -35 22 -37 32
-8 47 18 10 28 10 46 1 27 -15 38 -5 22 21 -7 11 -10 30 -6 46 6 23 5 25 -12
18 -30 -12 -36 -10 -93 25 -62 38 -70 23 68 124 45 32 81 65 81 73 0 18 -25 5
-109 -59 -35 -26 -67 -48 -70 -48 -3 0 -12 9 -18 19 -11 17 -4 25 63 76 76 59
107 95 81 95 -7 0 -31 -13 -54 -30 -39 -29 -41 -29 -57 -11 -21 23 -8 34 29
25 23 -6 26 -4 23 15 -2 16 10 31 46 59 27 20 56 47 64 60 24 37 -6 28 -73
-23 -33 -25 -64 -45 -68 -45 -5 0 -22 9 -37 20 -21 15 -27 26 -23 41 5 19 3
20 -13 11 -26 -15 -81 23 -63 44 6 8 22 14 35 14 14 0 24 6 24 14 0 22 72 77
92 70 13 -4 18 0 18 12 0 10 10 28 22 41 28 30 15 42 -24 20 -17 -10 -33 -15
-36 -12 -3 3 -3 6 -1 8 2 2 34 24 71 50 71 50 117 99 99 105 -6 2 -50 -26 -97
-62 -81 -62 -114 -78 -114 -57 0 5 29 30 64 56 64 47 87 75 62 75 -7 0 -31
-12 -52 -28 l-39 -27 -21 22 -22 21 32 30 c59 57 61 60 37 92 l-21 29 78 58
c47 36 76 66 76 76 -1 9 13 26 32 38 19 11 34 27 34 35 0 20 -50 -2 -130 -56
l-62 -42 -29 28 c-26 25 -28 30 -14 43 13 13 18 12 41 -10 l27 -24 -6 32 c-8
42 8 51 39 22 29 -27 42 -19 25 17 -10 23 -9 30 10 50 28 30 19 40 -21 24 -27
-11 -33 -10 -51 5 -19 18 -19 19 11 38 l31 20 38 -37 c20 -20 40 -36 44 -36
15 0 6 30 -20 60 -26 31 -26 33 -8 46 22 17 32 17 40 4 3 -5 10 -10 16 -10 17
0 9 25 -21 61 l-29 36 26 12 c19 9 29 9 39 0 11 -9 14 -8 14 7 0 11 16 30 35
44 31 22 35 29 30 56 -5 27 -2 32 17 37 15 4 30 -1 45 -15 27 -25 39 -19 23
12 -10 18 -8 26 10 45 25 26 12 42 -21 25 -17 -9 -24 -8 -40 6 -19 17 -18 18
11 35 37 23 40 44 5 35 -14 -3 -36 -9 -50 -12 -22 -5 -25 -3 -25 18 0 14 2 27
5 30 3 2 38 -1 78 -8 40 -7 134 -20 208 -28z m1219 -2536 c124 -5 257 -12 295
-16 l70 -6 -107 -106 c-94 -92 -129 -142 -100 -142 16 0 222 218 222 235 0 12
7 15 33 11 17 -3 59 -8 92 -11 92 -10 251 -44 290 -62 45 -22 44 -38 -4 -63
-95 -48 -324 -96 -601 -125 -210 -22 -692 -39 -852 -30 l-138 7 35 41 c38 44
43 57 21 57 -8 0 -33 -22 -56 -50 -33 -39 -48 -50 -71 -50 -16 0 -29 5 -29 11
0 6 32 44 70 83 72 74 80 86 57 86 -17 0 -70 -52 -120 -117 -35 -47 -44 -53
-76 -53 l-36 0 93 92 c88 87 104 108 82 108 -13 0 -91 -77 -151 -148 -35 -42
-50 -53 -69 -50 -22 3 -20 7 34 66 33 34 55 66 51 70 -7 7 -115 -106 -115
-120 0 -5 -15 -8 -32 -8 l-33 0 55 51 c36 34 50 53 41 56 -7 3 -39 -20 -70
-51 -51 -51 -81 -69 -81 -48 0 4 27 32 60 63 56 52 73 79 50 79 -6 0 -40 -31
-77 -70 -51 -54 -73 -70 -94 -70 -49 0 -41 18 36 75 71 52 90 75 63 75 -21 0
-69 -33 -130 -89 -53 -48 -59 -51 -90 -43 l-32 8 67 53 c62 49 80 71 58 71 -5
0 -42 -27 -83 -60 -54 -44 -81 -60 -103 -60 -30 1 -30 1 28 53 31 29 57 58 57
66 0 17 -13 8 -92 -61 -41 -35 -60 -46 -76 -41 -29 7 -23 15 64 79 41 30 74
59 74 65 0 15 -29 -3 -116 -72 -69 -55 -79 -60 -106 -53 l-29 9 60 45 c62 47
86 75 72 84 -4 3 -41 -21 -82 -54 -41 -33 -83 -60 -94 -60 -23 0 -85 35 -85
49 0 14 93 47 183 65 162 34 463 64 792 79 152 8 622 6 825 -3z"/>
<path d="M7923 3853 c-139 -93 -352 -260 -353 -277 0 -17 3 -16 33 6 17 14 97
71 177 128 146 103 200 147 200 162 0 14 -15 9 -57 -19z"/>
<path d="M8725 2667 c-71 -41 -325 -238 -325 -253 0 -8 2 -14 5 -14 3 0 39 25
80 56 41 30 124 90 186 132 107 73 137 102 107 102 -7 0 -31 -11 -53 -23z"/>
<path d="M8726 2590 c-63 -40 -393 -287 -401 -300 -3 -5 -4 -14 0 -20 3 -5 43
19 88 54 45 35 127 94 182 131 143 97 195 137 195 152 0 19 -11 16 -64 -17z"/>
<path d="M4485 5303 c-384 -18 -683 -73 -765 -141 -41 -35 -51 -84 -55 -267
-2 -111 0 -145 12 -164 12 -18 13 -29 4 -48 -16 -35 -14 -48 15 -83 25 -29 26
-34 15 -69 -7 -24 -45 -76 -104 -142 -174 -195 -282 -353 -368 -534 -234 -497
-223 -1057 33 -1665 22 -52 68 -151 103 -220 35 -69 66 -135 70 -148 37 -127
569 -222 1245 -222 464 0 842 40 1078 115 127 40 138 52 227 232 102 208 156
336 204 489 168 524 145 1004 -68 1439 -93 189 -191 329 -376 535 -44 50 -80
100 -87 122 -10 34 -8 40 16 68 28 34 32 51 16 81 -8 14 -7 26 4 47 11 22 14
67 13 203 -2 202 -6 213 -87 254 -167 85 -698 140 -1145 118z m675 -58 c255
-27 429 -69 487 -119 l26 -23 -20 -20 c-73 -73 -411 -129 -838 -139 -218 -5
-228 -4 -200 12 85 47 125 77 125 95 0 38 -27 27 -197 -80 -43 -28 -56 -32
-80 -24 -27 9 -27 10 44 51 76 45 99 72 59 72 -13 0 -65 -27 -115 -60 -92 -61
-144 -82 -83 -34 32 26 43 54 20 54 -7 0 -36 -16 -65 -36 -36 -25 -60 -34 -80
-32 -26 3 -22 6 42 43 38 23 71 49 73 58 6 31 -33 19 -121 -39 -48 -31 -92
-54 -99 -52 -12 4 76 60 167 107 22 11 33 20 25 20 -25 1 -122 -43 -184 -83
-32 -20 -65 -36 -75 -34 -10 2 6 17 44 39 33 19 61 43 63 52 3 14 -1 16 -22 7
-21 -7 -26 -6 -26 5 0 25 -23 17 -90 -35 -71 -54 -107 -69 -47 -19 21 17 36
37 33 44 -2 7 6 23 20 36 13 12 24 26 24 31 0 20 -42 3 -125 -52 -84 -56 -115
-70 -115 -52 0 4 22 20 50 35 27 15 52 32 56 38 15 25 -10 19 -81 -20 -85 -47
-101 -47 -25 0 54 33 66 55 25 45 -19 -5 -23 -3 -19 9 4 9 1 15 -7 15 -30 1
22 20 103 40 277 65 832 85 1228 45z m-1385 -231 c204 -90 768 -137 1245 -104
319 22 484 55 648 127 9 4 12 -12 12 -63 -1 -62 -3 -71 -26 -87 -35 -26 -66
-14 -58 21 7 27 7 27 -14 9 -16 -15 -25 -16 -41 -8 -11 6 -24 11 -30 11 -18 0
-12 -38 7 -49 13 -8 14 -12 5 -22 -10 -10 -25 -6 -71 14 -73 33 -75 33 -70 2
6 -30 6 -30 -35 -8 -18 10 -50 22 -72 28 -38 10 -41 9 -66 -19 l-25 -29 -47
16 c-46 15 -47 15 -47 -5 0 -11 8 -27 18 -35 15 -12 14 -13 -13 -7 -42 9 -44
11 -38 35 5 18 3 20 -13 11 -10 -6 -32 -24 -47 -40 -20 -21 -35 -28 -49 -24
-18 4 -20 2 -15 -20 5 -18 1 -30 -13 -43 -18 -16 -42 -18 -247 -18 -313 1
-528 23 -815 84 -82 18 -148 36 -148 41 0 6 8 7 18 3 9 -4 32 -9 50 -12 41 -7
43 12 2 35 -32 18 -39 32 -15 32 8 0 15 5 15 11 0 6 7 8 16 5 45 -17 64 -18
64 -2 0 8 -10 20 -21 27 -17 8 -19 13 -8 19 21 14 -7 38 -67 57 -30 9 -54 20
-54 25 0 11 1 11 65 -18z m1895 -263 c-15 -29 -32 -34 -180 -61 -274 -48 -415
-61 -735 -67 -331 -6 -531 7 -775 48 -190 31 -249 48 -267 76 -9 13 -13 26
-11 29 3 3 84 -11 179 -30 227 -46 371 -64 607 -76 372 -18 870 29 1147 109
37 10 50 0 35 -28z m-1853 -91 c243 -53 532 -80 852 -80 332 0 567 21 855 77
105 20 131 22 137 11 24 -37 -14 -57 -148 -78 -480 -73 -1165 -74 -1644 0
-128 19 -167 38 -153 73 3 9 7 17 8 17 1 0 43 -9 93 -20z m203 -130 c466 -53
967 -50 1429 11 84 11 155 18 157 17 1 -2 -16 -28 -38 -57 -86 -113 -138 -196
-138 -220 0 -20 9 -11 49 47 58 83 139 185 152 190 15 6 10 -35 -6 -48 -34
-28 -175 -249 -169 -265 5 -12 24 10 69 77 67 100 144 191 145 171 0 -7 -13
-27 -28 -45 -71 -81 -142 -182 -142 -200 0 -13 26 13 79 78 94 118 116 140
126 124 4 -7 -7 -31 -24 -53 -125 -167 -161 -228 -133 -227 4 1 33 38 65 83
65 95 137 170 137 145 0 -9 -16 -35 -35 -58 -77 -92 -186 -250 -183 -265 2 -9
41 36 96 109 112 148 147 185 163 169 9 -9 -3 -31 -45 -88 -38 -50 -56 -83
-54 -98 2 -18 14 -8 67 61 35 45 65 82 67 82 13 0 -4 -28 -66 -105 -66 -83
-80 -105 -62 -105 4 0 40 41 81 91 l75 91 17 -23 c17 -23 17 -25 -27 -86 -45
-63 -61 -109 -27 -82 9 8 -1 -12 -21 -43 -21 -31 -35 -62 -31 -68 4 -7 38 30
82 92 42 57 78 105 80 108 2 2 8 -2 13 -9 5 -10 -13 -44 -57 -107 -35 -52 -63
-102 -61 -111 2 -12 26 15 72 80 38 53 71 97 72 97 2 0 8 -9 14 -21 10 -18 1
-31 -84 -120 -61 -63 -96 -107 -96 -121 0 -16 23 2 98 80 54 56 103 102 109
102 7 0 16 -8 22 -17 7 -14 -8 -35 -80 -111 -51 -54 -89 -103 -89 -114 0 -15
25 5 96 76 105 106 147 121 59 21 -52 -60 -66 -85 -46 -85 5 0 32 26 60 57 28
31 52 55 55 52 2 -2 13 -22 24 -45 l21 -41 -65 -64 c-36 -36 -64 -72 -64 -83
0 -16 16 -4 69 48 68 68 69 68 81 45 12 -22 8 -28 -64 -95 -56 -52 -77 -77
-74 -92 2 -17 14 -10 78 49 41 38 78 69 83 69 24 0 -6 -37 -110 -135 -64 -61
-114 -116 -112 -122 2 -6 56 35 119 93 63 57 118 104 121 104 4 0 9 -10 12
-22 4 -15 0 -26 -16 -37 -35 -23 -206 -205 -207 -218 0 -7 3 -13 7 -13 4 0 58
50 119 111 l111 111 11 -44 c6 -23 14 -64 17 -89 l7 -47 -106 -72 c-70 -48
-106 -79 -106 -92 0 -10 2 -18 5 -18 3 0 51 31 107 70 98 66 103 69 109 47 7
-24 7 -24 -108 -120 -41 -35 -62 -60 -62 -75 -1 -21 6 -18 67 31 84 68 112 84
112 63 0 -8 -7 -19 -16 -24 -33 -19 -253 -198 -259 -210 -13 -34 11 -29 58 11
29 24 88 70 132 102 l80 57 3 -38 c2 -23 -1 -40 -8 -42 -27 -9 -210 -163 -210
-177 0 -8 3 -15 6 -15 3 0 52 39 110 86 l104 86 0 -35 c0 -34 -5 -39 -122
-120 -84 -57 -124 -91 -126 -105 -2 -12 -1 -22 1 -22 3 0 47 29 98 64 52 35
104 68 117 75 21 11 22 10 22 -29 0 -38 -3 -42 -75 -92 -70 -48 -84 -65 -69
-81 3 -3 33 14 66 39 34 24 62 43 64 41 14 -14 -22 -52 -102 -105 -52 -34 -94
-69 -94 -77 0 -21 3 -20 57 18 65 45 123 80 123 73 0 -3 -38 -30 -84 -60 -87
-56 -103 -71 -87 -81 5 -3 42 15 81 41 39 25 73 44 74 42 2 -1 -1 -17 -5 -34
-7 -24 -30 -45 -109 -97 -55 -37 -100 -74 -100 -83 0 -17 -5 -20 99 48 40 26
77 48 82 48 4 0 3 -14 -3 -30 -8 -24 -28 -39 -99 -76 -49 -25 -89 -52 -89 -60
0 -20 12 -18 87 16 36 17 67 30 68 30 2 0 1 -9 -2 -21 -3 -12 -29 -32 -64 -50
-33 -16 -59 -36 -59 -44 0 -19 3 -19 50 5 22 11 40 17 40 12 0 -23 -34 -43
-122 -72 -78 -25 -98 -36 -98 -50 0 -18 3 -18 49 -4 27 8 68 21 91 29 54 19
52 19 39 -9 -13 -28 -35 -36 -101 -36 -41 0 -48 -3 -48 -20 0 -18 7 -20 57
-20 80 0 55 -16 -46 -29 -46 -6 -88 -11 -93 -11 -4 0 -8 -9 -8 -20 0 -16 5
-19 23 -16 52 11 147 16 147 8 0 -4 -6 -17 -14 -27 -11 -16 -30 -20 -90 -23
-65 -4 -76 -7 -76 -22 0 -17 -3 -17 -47 -4 -241 73 -861 117 -1351 95 -272
-11 -485 -30 -626 -55 -73 -13 -80 -12 -97 5 -10 10 -30 21 -44 25 -14 3 -25
10 -23 13 2 4 57 55 124 114 142 124 184 170 184 199 0 25 1 26 -130 -94 -131
-120 -149 -133 -162 -120 -8 8 -6 18 6 36 19 31 20 36 3 36 -8 0 -24 -11 -36
-24 -20 -21 -61 -26 -61 -7 0 3 32 34 70 69 80 72 124 126 118 144 -3 7 -41
-24 -90 -70 -82 -79 -87 -82 -112 -71 l-26 12 27 30 c16 16 72 67 126 114 53
46 95 89 92 94 -10 16 -57 -16 -153 -107 -59 -55 -97 -83 -103 -77 -6 6 8 22
38 43 58 42 143 120 143 131 0 17 -26 9 -60 -19 -143 -115 -158 -124 -190
-117 -25 6 -29 9 -19 21 6 8 23 14 36 14 18 0 24 4 19 15 -3 8 5 26 19 41 28
31 68 104 56 104 -4 0 -27 -14 -50 -30 -38 -28 -44 -29 -67 -17 l-25 13 55 38
c79 54 150 136 119 136 -5 0 -37 -25 -72 -55 -70 -59 -100 -64 -51 -9 50 58
37 74 -20 24 -19 -16 -46 -29 -60 -29 -24 0 -23 2 15 32 84 67 115 107 83 107
-7 0 -48 -27 -91 -59 -75 -57 -79 -58 -112 -48 -42 13 -43 19 -8 38 15 8 35
21 44 30 9 9 62 44 117 78 103 64 126 83 120 100 -4 15 -88 -27 -188 -93 -78
-52 -87 -56 -112 -45 -16 6 -28 13 -28 15 0 9 87 84 98 84 22 0 12 17 -18 30
-16 7 -30 19 -30 26 0 10 -7 13 -24 8 -28 -7 -46 13 -20 23 9 3 40 -6 72 -21
82 -41 93 -10 15 41 -21 14 -22 18 -9 25 10 5 24 5 36 -2 17 -9 20 -8 20 12 0
16 15 32 50 56 28 17 50 37 50 42 0 14 -3 13 -74 -22 -55 -27 -67 -30 -81 -18
-14 11 -8 18 49 56 101 68 99 90 -2 33 -48 -27 -56 -29 -69 -16 -13 12 -7 18
41 46 31 17 56 38 56 47 0 20 -29 12 -91 -26 -30 -19 -51 -25 -60 -19 -11 7
-10 11 6 23 11 8 28 13 38 10 31 -10 19 24 -19 50 -34 23 -35 25 -16 35 11 6
28 8 36 5 10 -4 16 -1 16 9 0 9 37 35 88 62 97 52 152 91 152 106 0 15 -35 2
-112 -41 -55 -32 -68 -36 -73 -23 -6 18 21 53 41 53 18 0 5 38 -18 54 -20 14
-19 15 10 30 40 20 47 33 30 53 -8 10 -9 18 -3 20 30 10 129 71 133 81 6 20
-20 14 -96 -23 -65 -31 -102 -36 -102 -15 0 4 37 21 83 38 95 36 133 60 119
74 -6 6 -33 1 -72 -12 -48 -16 -65 -18 -74 -9 -7 7 -7 13 -1 15 6 2 26 14 45
26 23 14 30 23 21 26 -8 3 -24 17 -37 31 -26 30 -17 41 34 41 17 0 32 4 32 8
0 5 18 14 40 21 44 13 99 55 87 67 -4 4 -41 -4 -83 -19 -75 -27 -76 -27 -100
-8 -24 19 -24 20 -4 26 11 3 28 4 39 0 13 -4 20 0 23 13 4 12 22 24 51 33 51
14 66 35 41 53 -13 10 -7 15 39 29 62 20 90 43 63 53 -9 3 -25 4 -35 1 -13 -3
-21 1 -24 13 -4 14 6 20 47 29 28 6 58 16 66 21 13 9 13 12 0 23 -8 7 -23 27
-32 45 l-17 32 37 9 c20 6 48 12 62 15 110 21 214 60 208 78 -6 17 -54 12
-137 -14 l-65 -20 -19 23 -19 24 33 8 c62 16 119 39 119 48 0 12 -52 11 -106
-2 -51 -13 -59 -10 -50 24 5 23 8 24 53 15 27 -5 122 -17 213 -28z m1122
-2510 c404 -27 739 -95 761 -154 10 -26 -19 -61 -73 -88 -201 -100 -809 -161
-1389 -138 -146 6 -269 13 -273 16 -5 3 14 28 42 55 27 28 50 57 50 65 0 20
-11 13 -91 -58 -62 -54 -87 -67 -101 -52 -4 3 16 27 43 53 45 44 61 71 41 71
-5 0 -21 -14 -38 -31 -57 -61 -102 -91 -125 -84 -20 7 -20 8 8 37 15 16 52 48
81 70 28 22 52 47 52 54 0 31 -39 6 -135 -86 -53 -51 -75 -66 -88 -61 -15 6
-8 16 44 61 115 100 149 140 119 140 -5 0 -56 -43 -112 -95 -78 -72 -110 -95
-130 -95 -16 0 -28 3 -28 8 1 4 46 45 100 91 89 74 119 111 91 111 -10 0 -89
-68 -172 -147 -40 -39 -60 -52 -73 -47 -15 6 -14 10 11 36 15 16 70 61 121
100 85 65 111 98 79 98 -20 0 -67 -37 -171 -134 -81 -75 -100 -87 -117 -80
-18 8 -13 15 51 67 38 32 70 65 70 74 0 18 -2 17 -101 -70 -48 -42 -71 -56
-84 -51 -15 6 -8 17 44 64 57 54 74 80 51 80 -5 0 -41 -29 -78 -65 -61 -57
-71 -63 -87 -52 -16 12 -16 14 6 29 13 8 61 45 107 82 80 64 85 67 170 81 108
18 252 34 402 44 172 12 747 12 922 1z"/>
<path d="M4623 4157 c-43 -41 -119 -111 -170 -156 -61 -54 -90 -87 -86 -97 6
-17 -7 -27 163 119 146 126 217 207 181 207 -5 0 -45 -33 -88 -73z"/>
</g>
</svg>
